<?xml version="1.0" encoding="utf-8"?>
<svg viewBox="0 0 128 128" xmlns="http://www.w3.org/2000/svg">
  <path d="M18,63H2a2,2,0,0,0,0,4H18a2,2,0,0,0,0-4Z" style="fill: rgb(236, 188, 174);"/>
  <path d="M2,59h9a2,2,0,0,0,0-4H2a2,2,0,0,0,0,4Z" style="fill: rgb(236, 188, 174);"/>
  <path d="M11,71H2a2,2,0,0,0,0,4h9a2,2,0,0,0,0-4Z" style="fill: rgb(236, 188, 174);"/>
  <path d="M126,63H110a2,2,0,0,0,0,4h16a2,2,0,0,0,0-4Z" style="fill: rgb(236, 188, 174);"/>
  <path d="M126,55h-9a2,2,0,0,0,0,4h9a2,2,0,0,0,0-4Z" style="fill: rgb(236, 188, 174);"/>
  <path d="M126,71h-9a2,2,0,0,0,0,4h9a2,2,0,0,0,0-4Z" style="fill: rgb(236, 188, 174);"/>
  <path d="M64,39A19,19,0,1,0,83,58,19,19,0,0,0,64,39Zm0,34A15,15,0,1,1,79,58,15,15,0,0,1,64,73Z" style="fill: rgb(236, 188, 174);"/>
  <path d="M28.37,38.89a6.41,6.41,0,0,0,1.46.18,5.94,5.94,0,0,0,1.83-.29L35,43.43a6.06,6.06,0,0,0,8.52,1.41,6.19,6.19,0,0,0,1.42-8.5l-7-10a6,6,0,0,0,2.59-2.49,5.5,5.5,0,0,0,.64-4.34c-.65-2.48-2.83-4.41-6.64-5.9L24,8.77l.24-.19a2,2,0,0,0,.44-2.74l-3.49-5A2,2,0,0,0,19.91,0,2.05,2.05,0,0,0,18.39.4L.8,13.68a2,2,0,0,0-.44,2.74l3.48,5a2,2,0,0,0,1.33.83l.31,0a1.93,1.93,0,0,0,.78-.18,55,55,0,0,0,4.68,9.41L15.48,38a6,6,0,0,0,8.3,1.6,6.07,6.07,0,0,0,4.59-.72Zm-4.86-4-1.17-1.42s0,0,0,0,0,0,0,0a2.17,2.17,0,0,1-.65,2.72,2,2,0,0,1-2.9-.49l-4.23-6-.12-.17a50.83,50.83,0,0,1-4.77-9.82l0,0,10.84-8.18L32.94,17.3c6,2.29,4.12,4.51,4.12,4.51A2.28,2.28,0,0,1,34.82,23a12.63,12.63,0,0,1-5.24-1.79l-.06,0c-.05,0,0,.07,0,.07l12.1,17.34a2.16,2.16,0,0,1-.49,3,2.06,2.06,0,0,1-2.91-.48L32,32.31a.13.13,0,0,0-.06,0s-.07,0,0,.11A2.22,2.22,0,0,1,31,34.67a2.05,2.05,0,0,1-2.91-.49l-.93-1.35s-.05,0-.07,0,0,0,0,.08a2.15,2.15,0,0,1-.73,2.52,2.07,2.07,0,0,1-1.22.4A2,2,0,0,1,23.51,34.89Z" style="fill: rgb(236, 188, 174);"/>
  <path d="M127.2,13.68,109.61.4A2.05,2.05,0,0,0,108.09,0a2,2,0,0,0-1.32.84l-3.49,5a2,2,0,0,0,.44,2.74l.24.19L93.5,13.62c-3.81,1.49-6,3.42-6.64,5.9a5.5,5.5,0,0,0,.64,4.34,6,6,0,0,0,2.59,2.49l-7,10a6.2,6.2,0,0,0,1.4,8.49,6.07,6.07,0,0,0,8.56-1.42l3.27-4.63a5.94,5.94,0,0,0,1.83.29,6.41,6.41,0,0,0,1.46-.18,6.07,6.07,0,0,0,3.17.89,6.13,6.13,0,0,0,1.42-.17,6,6,0,0,0,8.3-1.6l4.54-6.52a55,55,0,0,0,4.68-9.41,1.93,1.93,0,0,0,.78.18l.31,0a2,2,0,0,0,1.33-.83l3.48-5A2,2,0,0,0,127.2,13.68ZM113.59,29.5l-.06.09-4.29,6.13a2,2,0,0,1-2.9.49,2.17,2.17,0,0,1-.65-2.72s0,0,0,0,0,0,0,0l-1.17,1.42a2,2,0,0,1-1.69.89,2.07,2.07,0,0,1-1.22-.4,2.15,2.15,0,0,1-.73-2.52c0-.06,0-.08,0-.08s-.07,0-.07,0l-.93,1.35a2.05,2.05,0,0,1-2.91.49,2.22,2.22,0,0,1-.81-2.27c0-.09,0-.11,0-.11a.13.13,0,0,0-.06,0l-6.24,8.81a2.06,2.06,0,0,1-2.91.48,2.16,2.16,0,0,1-.49-3l12.1-17.34s0-.07,0-.07l-.06,0A12.63,12.63,0,0,1,93.18,23a2.28,2.28,0,0,1-2.24-1.22s-1.83-2.22,4.12-4.51l12.43-5.76,10.84,8.18,0,0A50.83,50.83,0,0,1,113.59,29.5Z" style="fill: rgb(236, 188, 174);"/>
  <path d="M80.75,74H80.5a23.22,23.22,0,0,1-7.39,5.12A23,23,0,0,1,47.51,74h-.26C35,74,25,83.5,25,95.22v28.54A4.35,4.35,0,0,0,29.45,128h69.1a4.35,4.35,0,0,0,4.45-4.24V95.22C103,83.5,93,74,80.75,74ZM40,120a2,2,0,1,1,2-2A2,2,0,0,1,40,120Zm8.09-30c-.63,0-6.09.53-6.09,7v13a2,2,0,0,1-4,0V97c0-8.37,6.49-10.85,9.92-11A2,2,0,0,1,50,87.92,2,2,0,0,1,48.09,90Z" style="fill: rgb(236, 188, 174);"/>
</svg>