<?xml version="1.0" encoding="utf-8"?>
<svg viewBox="0 0 100 100" style="enable-background:new 0 0 100 100;" xmlns="http://www.w3.org/2000/svg">
  <g>
    <path d="M84.2,33.4h-7.6L60.3,18.5c0.6-1.4,1-3,1-4.6c0-6.3-5.1-11.3-11.3-11.3S38.7,7.6,38.7,13.8c0,1.6,0.4,3.2,1,4.6L23.4,33.4    h-7.6c-2,0-3.6,1.6-3.6,3.6v56.9c0,2,1.6,3.6,3.6,3.6h68.3c2,0,3.6-1.6,3.6-3.6V37C87.8,35,86.1,33.4,84.2,33.4z M50,9.7    c2.3,0,4.1,1.9,4.1,4.1S52.3,18,50,18s-4.1-1.9-4.1-4.1S47.7,9.7,50,9.7z M63.8,73.3c1.6,1.6,1.6,4.3,0,6c-0.8,0.8-1.9,1.2-3,1.2    c-1.1,0-2.2-0.4-3-1.2L50,71.4l-7.8,7.8c-0.8,0.8-1.9,1.2-3,1.2c-1.1,0-2.2-0.4-3-1.2c-1.6-1.6-1.6-4.3,0-6l7.8-7.8l-7.8-7.8    c-1.6-1.6-1.6-4.3,0-6c1.6-1.6,4.3-1.6,6,0l7.8,7.8l7.8-7.8c1.6-1.6,4.3-1.6,6,0c1.6,1.6,1.6,4.3,0,6L56,65.5L63.8,73.3z     M34.1,33.4l10.5-9.7c1.6,0.9,3.5,1.4,5.4,1.4s3.8-0.6,5.4-1.4l10.5,9.7H34.1z" style="fill: rgb(99, 189, 126);"/>
  </g>
</svg>